<svg width="44" height="52" viewBox="0 0 44 52" fill="none" xmlns="http://www.w3.org/2000/svg">
<g id="Group 3">
<path id="Vector" d="M13.2203 22.1625C7.04652 22.4229 1.81174 17.9695 1.53223 12.2193C1.25271 6.4691 6.03401 1.59344 12.2078 1.3331C18.3815 1.07276 23.6164 5.52605 23.8959 11.2763C24.1754 17.0265 19.394 21.9022 13.2203 22.1625Z" fill="#EBDBCD"/>
<path id="Vector_2" d="M3.11006 33.1056C3.19641 33.102 3.28074 33.0581 3.36122 32.9339C3.39853 32.8114 3.34947 32.6926 3.21604 32.6176L2.02693 32.1843L2.49221 31.0767C2.52952 30.9542 2.48057 30.8354 2.34714 30.7605C2.21567 30.7257 2.08808 30.7714 2.0076 30.8956L1.39106 32.4528L3.11006 33.1056C3.06689 33.1074 3.02371 33.1092 3.11006 33.1056Z" fill="#110580"/>
<path id="Vector_3" d="M27.3243 41.755C27.4106 41.7514 27.495 41.7076 27.5755 41.5833C27.6128 41.4608 27.5637 41.342 27.4303 41.267L24.3927 40.1863C24.2613 40.1516 24.1337 40.1973 24.0532 40.3215C24.0159 40.444 24.0649 40.5628 24.1984 40.6377L27.2359 41.7185C27.2379 41.7587 27.2811 41.7568 27.3243 41.755ZM21.2491 39.5936C21.3355 39.5899 21.4198 39.5461 21.5003 39.4219C21.5376 39.2994 21.4886 39.1806 21.3552 39.1056L18.3176 38.0249C18.1861 37.9901 18.0585 38.0358 17.978 38.1601C17.9407 38.2826 17.9898 38.4013 18.1232 38.4763L21.1608 39.557C21.206 39.5954 21.2059 39.5954 21.2491 39.5936ZM15.2171 37.4303C15.3035 37.4267 15.3878 37.3829 15.4683 37.2586C15.5056 37.1361 15.4566 37.0173 15.3231 36.9423L12.2856 35.8616C12.1541 35.8269 12.0265 35.8726 11.946 35.9968C11.9087 36.1193 11.9578 36.2381 12.0912 36.313L15.1288 37.3938C15.1307 37.434 15.174 37.4321 15.2171 37.4303ZM9.14 35.2287C9.22635 35.225 9.31068 35.1812 9.39116 35.0569C9.42847 34.9344 9.37952 34.8157 9.24609 34.7407L6.20844 33.66C6.07697 33.6252 5.94938 33.6709 5.8689 33.7951C5.83159 33.9176 5.88065 34.0364 6.01408 34.1114L9.05173 35.1921C9.09685 35.2305 9.09683 35.2305 9.14 35.2287Z" fill="#110580"/>
<path id="Vector_4" d="M33.3963 39.4037C33.4827 39.4001 33.5671 39.3562 33.6476 39.2319L34.7314 36.6074C34.7687 36.485 34.7196 36.3662 34.5862 36.2912C34.4547 36.2565 34.3271 36.3021 34.2467 36.4264L33.1629 39.0509C33.1256 39.1734 33.1746 39.2922 33.3081 39.3671C33.31 39.4074 33.3532 39.4055 33.3963 39.4037ZM35.5639 34.1547C35.6502 34.151 35.7347 34.1072 35.8151 33.983L36.8988 31.3584C36.9361 31.236 36.8872 31.1172 36.7537 31.0422C36.6223 31.0074 36.4947 31.0531 36.4142 31.1774L35.3304 33.8019C35.2931 33.9244 35.3422 34.0432 35.4756 34.1181C35.4776 34.1583 35.5207 34.1565 35.5639 34.1547ZM37.7334 28.9459C37.8197 28.9423 37.904 28.8984 37.9845 28.7741L39.0683 26.1496C39.1056 26.0272 39.0566 25.9084 38.9231 25.8334C38.7916 25.7987 38.6641 25.8443 38.5836 25.9686L37.4999 28.5931C37.4626 28.7156 37.5116 28.8344 37.645 28.9094C37.6469 28.9496 37.6902 28.9477 37.7334 28.9459Z" fill="#110580"/>
<path id="Vector_5" d="M39.8577 23.6987C39.944 23.6951 40.0284 23.6513 40.1088 23.527L40.7254 21.9698L39.0535 21.3956C38.922 21.3609 38.7944 21.4065 38.714 21.5308C38.6766 21.6532 38.7257 21.7721 38.8591 21.847L40.0482 22.2804L39.583 23.388C39.5456 23.5104 39.5947 23.6292 39.7281 23.7042C39.8145 23.7005 39.8577 23.6987 39.8577 23.6987Z" fill="#110580"/>
<path id="Vector_6" d="M35.9962 20.7992C36.0825 20.7956 36.167 20.7517 36.2475 20.6274C36.2848 20.505 36.2357 20.3862 36.1023 20.3112L33.0646 19.2305C32.9332 19.1958 32.8057 19.2414 32.7252 19.3657C32.6879 19.4881 32.7368 19.607 32.8703 19.6819L35.9079 20.7627C35.9079 20.7627 35.953 20.801 35.9962 20.7992ZM29.9191 18.5976C30.0054 18.5939 30.0898 18.5501 30.1703 18.4258C30.2076 18.3033 30.1586 18.1846 30.0251 18.1096L26.9876 17.0289C26.8561 16.9941 26.7285 17.0398 26.6481 17.164C26.6107 17.2865 26.6598 17.4053 26.7932 17.4803L29.8308 18.561C29.8327 18.6012 29.9191 18.5976 29.9191 18.5976ZM23.8871 16.4343C23.9734 16.4307 24.0579 16.3868 24.1383 16.2625C24.1757 16.1401 24.1266 16.0213 23.9932 15.9463L20.9555 14.8656C20.824 14.8309 20.6966 14.8765 20.6161 15.0008C20.5788 15.1232 20.6277 15.2421 20.7612 15.317L23.7988 16.3977C23.8008 16.438 23.8007 16.4379 23.8871 16.4343ZM17.8119 14.2729C17.8982 14.2692 17.9827 14.2254 18.0632 14.1011C18.1005 13.9786 18.0514 13.8598 17.918 13.7849L14.8804 12.7042C14.749 12.6694 14.6214 12.7151 14.5409 12.8393C14.5036 12.9618 14.5526 13.0806 14.6861 13.1556L17.7236 14.2363C17.7256 14.2765 17.7687 14.2747 17.8119 14.2729Z" fill="#110580"/>
<path id="Vector_7" d="M9.78602 12.919C9.87237 12.9153 9.9567 12.8715 10.0372 12.7472L10.5026 11.6396L11.6917 12.073C11.8231 12.1078 11.9507 12.0621 12.0312 11.9378C12.0685 11.8154 12.0195 11.6966 11.886 11.6216L10.2142 11.0474L9.59763 12.6046C9.56032 12.727 9.60938 12.8458 9.74281 12.9208C9.69964 12.9226 9.74285 12.9208 9.78602 12.919Z" fill="#110580"/>
<path id="Vector_8" d="M3.32676 28.6641C3.41311 28.6605 3.49744 28.6167 3.57792 28.4924L4.66169 25.8679C4.699 25.7454 4.64994 25.6266 4.51651 25.5516C4.38308 25.4767 4.25745 25.5626 4.17697 25.6869L3.09331 28.3114C3.056 28.4338 3.10495 28.5526 3.23838 28.6276C3.19521 28.6294 3.28359 28.6659 3.32676 28.6641ZM5.44913 23.3768C5.53548 23.3731 5.61981 23.3293 5.70029 23.205L6.78406 20.5805C6.82137 20.458 6.77231 20.3392 6.63888 20.2642C6.50741 20.2295 6.37982 20.2752 6.29934 20.3995L5.21568 23.024C5.17837 23.1464 5.22732 23.2652 5.36075 23.3402C5.40588 23.3786 5.44913 23.3768 5.44913 23.3768ZM7.61852 18.168C7.70487 18.1643 7.7893 18.1204 7.86978 17.9962L8.95355 15.3717C8.99086 15.2493 8.9418 15.1304 8.80838 15.0555C8.6769 15.0207 8.54932 15.0664 8.46883 15.1907L7.38506 17.8151C7.34775 17.9376 7.39681 18.0564 7.53024 18.1314C7.57537 18.1698 7.57535 18.1698 7.61852 18.168Z" fill="#110580"/>
<path id="Vector_9" d="M28.5886 49.0755L41.82 44.4881C42.5854 44.2141 43.0212 43.3899 42.725 42.6368L39.4788 34.594C39.1845 33.8811 38.2996 33.4752 37.491 33.7511L24.2596 38.3384C23.4942 38.6125 23.0585 39.4367 23.3547 40.1898L26.6008 48.2325C26.9402 48.9838 27.8251 49.3897 28.5886 49.0755Z" fill="#AAACE3"/>
<path id="Vector_10" d="M22.0393 42.5017C22.6006 42.478 23.0911 42.7797 23.2441 43.2568L23.7855 44.6039L24.3268 45.9511C24.5229 46.4264 24.3757 46.9564 23.9145 47.2579L20.411 49.9441C19.7457 50.496 18.6939 50.218 18.3958 49.4247L17.3149 46.7706L16.2342 44.1165C15.9361 43.3232 16.5034 42.5337 17.4101 42.4954L22.0393 42.5017Z" fill="#AAACE3"/>
</g>
</svg>
