<svg width="125" height="136" viewBox="0 0 125 136" fill="none" xmlns="http://www.w3.org/2000/svg">
<g id="Group 5">
<path id="Vector" d="M66.7072 0L55.6235 0.819098L60.5497 67.9913L71.6334 67.1722L66.7072 0Z" fill="#DADAED"/>
<path id="Vector_2" d="M59.9337 9.52283L56.1366 9.83007L56.2393 10.6492L60.0365 10.3421L59.9337 9.52283Z" fill="#989BD7"/>
<path id="Vector_3" d="M60.5496 16.9978L56.7524 17.3049L56.8549 18.1241L60.652 17.8169L60.5496 16.9978Z" fill="#989BD7"/>
<path id="Vector_4" d="M61.1652 24.5752L57.368 24.8823L57.4708 25.7015L61.2679 25.3943L61.1652 24.5752Z" fill="#989BD7"/>
<path id="Vector_5" d="M61.6784 32.0501L57.8812 32.3573L57.984 33.1764L61.7811 32.8693L61.6784 32.0501Z" fill="#989BD7"/>
<path id="Vector_6" d="M62.1914 39.6274L58.3943 39.9347L58.497 40.7538L62.2941 40.4467L62.1914 39.6274Z" fill="#989BD7"/>
<path id="Vector_7" d="M55.3155 23.0392L48.2344 24.268L57.5732 77.3095L64.6546 76.0806L55.3155 23.0392Z" fill="#FFADB2"/>
<path id="Vector_8" d="M55.3155 23.0392L48.2344 24.268L49.3631 14.1307L50.8 13.8235L55.3155 23.0392Z" fill="#EBDBCD"/>
<path id="Vector_9" d="M49.7737 18.8409L50.8 18.2266L51.621 18.3289L52.7498 17.8169L50.9024 14.0283L49.4658 14.3356L48.9526 18.3289L49.7737 18.8409Z" fill="#FF7A82"/>
<path id="Vector_10" d="M71.7361 66.2506C70.5045 66.0458 69.6835 64.9194 69.8887 63.6906L75.4307 28.2614C75.5333 27.9542 75.5333 27.647 75.6359 27.4422L78.8174 18.5337C79.2279 17.5098 80.3568 16.8954 81.3831 17.1002L81.8962 17.2025C83.0251 17.4073 83.7433 18.4313 83.7433 19.5577L83.025 28.9781C83.025 29.2853 82.9225 29.5925 82.9225 29.8997L74.5069 64.7146C74.0964 65.7386 72.9676 66.5577 71.7361 66.2506Z" fill="#FCB58A"/>
<path id="Vector_11" d="M113.299 90.5186H67.2202V105.878H113.299V90.5186Z" fill="#F8D7BC"/>
<path id="Vector_12" d="M115.25 89.3922V90.5186H67.1176V105.878H115.25V107.005H16.3175V89.2899H115.25V89.3922Z" fill="#FF7A82"/>
<path id="Vector_13" d="M52.7499 133.423H120.791V108.643H52.7499C49.3633 108.643 46.6951 111.408 46.6951 114.684V127.279C46.6951 130.76 49.3633 133.423 52.7499 133.423Z" fill="#F8ECE2"/>
<path id="Vector_14" d="M12.5204 107.107H123.87C124.281 107.107 124.691 107.516 124.691 107.926C124.691 108.336 124.281 108.745 123.87 108.745H110.221H59.1127C52.2367 108.745 46.695 114.275 46.695 121.135C46.695 127.996 52.2367 133.525 59.1127 133.525H122.228H123.87C124.281 133.525 124.691 133.935 124.691 134.344C124.691 134.754 124.281 135.164 123.87 135.164H12.4177C5.54168 135.164 0 129.634 0 122.773V119.702C0.102626 112.636 5.64441 107.107 12.5204 107.107Z" fill="#FCB58A"/>
<path id="Vector_15" d="M120.894 112.636H56.3418V113.455H120.894V112.636Z" fill="#EBD0BE"/>
<path id="Vector_16" d="M120.894 122.876H51.6213V123.695H120.894V122.876Z" fill="#EBD0BE"/>
<path id="Vector_17" d="M120.894 128.201H60.1388V129.02H120.894V128.201Z" fill="#EBD0BE"/>
<path id="Vector_18" d="M120.894 118.063H53.6738V118.883H120.894V118.063Z" fill="#EBD0BE"/>
<path id="Vector_19" d="M68.0414 88.7778H25.6566V79.8694H68.0414C69.2729 79.8694 70.1964 80.7909 70.1964 82.0197V86.5252C70.1964 87.7539 69.2729 88.7778 68.0414 88.7778Z" fill="#F8E7D8"/>
<path id="Vector_20" d="M94.4164 79.2549H23.9121C23.8094 79.2549 23.6041 79.3574 23.6041 79.5622C23.6041 79.767 23.7068 79.8694 23.9121 79.8694H65.681C68.144 79.8694 70.094 81.9173 70.094 84.2724C70.094 86.7299 68.0414 88.6755 65.681 88.6755H23.9121C23.8094 88.6755 23.6041 88.7778 23.6041 88.9826C23.6041 89.085 23.7068 89.2899 23.9121 89.2899H94.4164C96.8794 89.2899 98.8294 87.2419 98.8294 84.8868V83.5557C98.8294 81.2006 96.8794 79.2549 94.4164 79.2549Z" fill="#FF5856"/>
<path id="Vector_21" d="M50.3894 42.085H81.3828C82.2039 42.085 82.8194 42.8017 82.7168 43.6209L78.2013 79.2549H53.3658L49.0555 43.6209C48.9529 42.8017 49.5684 42.085 50.3894 42.085Z" fill="#AAACE3"/>
<path id="Vector_22" d="M81.9983 16.7929L81.4852 16.6905C80.3563 16.4858 79.2275 17.1002 78.817 18.1241L75.5328 27.2375C75.4301 27.3398 75.4303 27.4423 75.4303 27.6471C76.4566 28.4662 77.7907 29.183 79.2274 29.3878C80.5616 29.5925 81.8957 29.4902 83.0246 29.183C83.0246 29.0806 83.1273 28.9782 83.1273 28.7734L83.8456 19.1481C83.9482 18.0217 83.1272 17.1001 81.9983 16.7929Z" fill="#D7D7E6"/>
<path id="Vector_23" d="M82.1014 3.07193C82.4093 2.45755 83.2302 2.45755 83.5381 3.07193C84.0512 4.0959 84.6671 5.32466 85.1802 6.14383C86.0012 7.67978 86.5144 11.1612 86.0013 12.902C85.4881 14.9499 84.0513 16.9978 83.6408 17.7146C83.5382 17.817 83.4354 17.9194 83.2302 18.0218C82.8197 18.1242 81.9988 18.329 80.8699 18.1242C79.3306 17.7146 79.2278 16.793 79.2278 16.793C79.2278 16.793 78.4069 13.5163 78.5095 11.4684C78.6121 9.42047 79.741 6.86053 80.2541 6.45095C80.562 5.93896 81.4857 4.30069 82.1014 3.07193Z" fill="#C7645D"/>
<path id="Vector_24" d="M123.87 133.423H122.228H116.789C116.378 134.037 115.968 134.549 115.455 134.959H123.767C124.178 134.959 124.588 134.549 124.588 134.14C124.588 133.832 124.281 133.423 123.87 133.423Z" fill="#FCB58A"/>
<path id="Vector_25" d="M123.87 108.643C124.281 108.643 124.691 108.233 124.691 107.824C124.691 107.414 124.281 107.005 123.87 107.005H118.226V108.54L123.87 108.643Z" fill="#FCB58A"/>
</g>
</svg>
