<svg width="48" height="60" viewBox="0 0 48 60" fill="none" xmlns="http://www.w3.org/2000/svg">
<g id="Group 6">
<path id="Vector" d="M0.174721 3.45219C4.32195 7.71681 6.64955 12.4036 9.23099 17.6816C9.9504 19.1173 14.3938 16.2461 14.0553 14.8104C12.7011 9.19466 8.97705 4.25444 4.87214 0.285393C3.47562 -0.981325 -0.925565 2.31214 0.174721 3.45219Z" fill="#F3E9E1"/>
<path id="Vector_2" d="M25.3123 2.94547C25.1853 8.13902 24.085 13.037 23.1117 18.1039C22.6462 20.3417 26.9627 17.7239 27.4282 16.5416C29.3325 11.5592 29.8827 5.90116 29.8403 0.580943C29.7557 -0.981343 25.3546 1.38319 25.3123 2.94547Z" fill="#F3E9E1"/>
<path id="Vector_3" d="M35.6378 24.4797C38.854 22.9174 42.1126 21.3552 45.4134 19.9196C46.5984 19.4129 48.1641 18.0195 47.8256 16.5417C47.487 15.106 45.625 15.1905 44.5671 15.655C41.3085 17.1328 38.0499 18.6528 34.7914 20.2151C33.6488 20.8063 32.0407 22.073 32.3793 23.593C32.7178 25.0286 34.5798 24.9864 35.6378 24.4797Z" fill="#F3E9E1"/>
<path id="Vector_4" d="M13.8859 54.2476C14.436 53.0653 12.3624 50.8697 9.23084 49.3918C6.09926 47.914 3.09461 47.6607 2.54446 48.8852C1.99432 50.0674 4.06794 52.2631 7.19952 53.7409C10.3311 55.2187 13.3358 55.4298 13.8859 54.2476Z" fill="#D4BFA9"/>
<path id="Vector_5" d="M3.60254 46.8584C4.66051 44.7894 5.59152 42.5938 5.93007 40.2715C6.73412 35.289 5.25297 29.5466 8.2576 25.5353C10.4582 22.6218 14.4784 21.6085 18.0755 22.0307C22.4767 22.4952 26.7932 24.9864 28.9514 28.8288C31.1097 32.7134 30.7288 37.9914 27.6818 41.2004C25.1004 43.9028 21.1648 44.8317 18.4141 47.3651C16.8906 48.8007 15.875 50.6164 14.7324 52.432L14.3515 52.9809C5.84539 52.3475 3.60254 46.8584 3.60254 46.8584Z" fill="#EBDBCD"/>
<path id="Vector_6" d="M18.4141 38.7091C18.0333 37.4002 16.8907 37.5268 15.875 37.9913C15.6211 37.2735 15.1979 36.3446 14.4362 36.0912C13.5898 35.7957 12.6587 36.3868 12.024 36.8935C10.6274 38.0335 9.5695 39.7225 8.97703 41.4115C8.38457 43.1004 8.08838 44.916 7.53824 46.605C7.32665 47.2806 8.42687 47.5761 8.63846 46.8583C9.31556 44.6627 9.5695 42.2982 10.6698 40.2714C11.3046 39.1314 12.2356 37.8647 13.4205 37.2735C13.8014 37.1046 14.0976 37.0202 14.3515 37.4424C14.5631 37.738 14.7324 38.0758 14.817 38.4135C14.817 38.4558 14.8594 38.4558 14.8594 38.498C14.6901 38.5825 14.6054 38.6669 14.4785 38.7514C13.3359 39.6803 11.8548 41.2848 11.8971 42.8471C11.9394 43.5649 12.4049 44.156 13.1243 44.1983C13.9283 44.2405 14.7324 43.5649 15.1979 42.9738C16.1289 41.8337 16.3829 40.3559 16.129 38.9625C16.3829 38.7936 16.6367 38.7091 16.8906 38.7091C17.5677 38.6669 17.3138 39.807 17.2292 40.187C16.8906 41.4959 16.2135 42.636 15.5364 43.776C15.0286 44.6205 14.5631 45.5494 13.9283 46.3095C13.2512 47.1539 12.2779 47.7451 11.3892 48.3784C10.7967 48.7585 11.3892 49.7296 11.9817 49.3496C13.0397 48.6318 14.0976 47.914 14.9017 46.9006C15.7057 45.8028 16.4251 44.5783 17.1022 43.4382C17.8216 42.1293 18.8796 40.2292 18.4141 38.7091ZM15.071 40.7359C14.944 41.327 14.6901 41.9181 14.2669 42.3826C14.013 42.636 12.955 43.6071 13.0397 42.7626C13.082 42.2559 13.4628 41.707 13.7167 41.2848C14.0976 40.7359 14.5632 40.2292 15.071 39.807C15.1133 40.1025 15.1133 40.4403 15.071 40.7359Z" fill="#BFA990"/>
<path id="Vector_7" d="M7.19953 53.6987C4.36418 52.3475 2.41754 50.4896 2.45985 49.2651L1.23255 54.2475C0.767044 55.2187 2.45985 56.9921 4.99898 58.1744C7.5381 59.3566 9.95029 59.5678 10.4158 58.5966C10.4581 58.5544 10.458 58.5122 10.458 58.4277L13.6743 54.5009C12.701 55.3454 10.0349 55.0498 7.19953 53.6987Z" fill="#BFA990"/>
</g>
</svg>
